<?xml version="1.0" encoding="utf-8"?>
<svg version="1.1" viewBox="0 0 22 32" xmlns="http://www.w3.org/2000/svg">
  <svg version="1.1" y="0" width="24.75" height="36" viewBox="" transform="matrix(1.091813087463379, 0, 0, 0.5869982838630676, 10.816373825073242, 18.216039657592773)" style="">
    <path d="M0,0 l22,0 l-11,11z" fill="#4AB9F0"/>
    <path d="M22,0 l-11,11 l-2.75,-2.75z" fill="#000" fill-opacity="0.11"/>
    <path d="M0,32 l22,0 l-11,-11z" fill="#8AD74B"/>
    <path d="M0,32 l11,-11 l2.75,2.75z" fill="#000" fill-opacity="0.11"/>
    <path d="M22,0 l-22,22 l0,10 l22,-22z" fill="#35DDDD"/>
  </svg>
  <svg version="1.1" x="26" y="3" width="144" height="36" viewBox="0 0 140 45" style="visibility: hidden;">
    <path d="M -10.781 10.652 L 3.219 10.652 L -10.781 26.81 L 3.219 26.81 M 9.219 18.256 L 24.219 18.256 C 23.804 11.686 16.893 8.06 11.779 11.729 C 6.666 15.398 7.184 23.611 12.713 26.512 C 16.529 28.515 21.143 26.976 23.219 23.008 M 30.219 18.256 L 45.219 18.256 C 44.804 11.686 37.893 8.06 32.779 11.729 C 27.666 15.398 28.184 23.611 33.713 26.512 C 37.529 28.515 42.143 26.976 44.219 23.008 M 54.219 3.999 L 54.219 27.761 M 49.219 10.652 L 59.219 10.652 M 65.219 3.999 L 65.219 4.949 M 65.219 10.652 L 65.219 27.761 M 71.219 10.652 L 71.219 15.405 M 71.219 27.761 L 71.219 16.355 C 72.219 7.801 84.219 7.801 85.219 16.355 L 85.219 27.761 M 98.219 28.711 C 91.687 28.303 88.021 20.535 91.62 14.731 C 95.22 8.926 103.385 9.438 106.317 15.651 C 109.054 21.45 105.314 28.33 99.219 28.711 Z M 107.219 11.603 L 107.219 32.513 C 107.219 37.531 100.552 40.666 95.219 38.158 C 92.744 36.994 91.219 34.842 91.219 32.513 M 113.219 23.959 C 113.219 30.612 128.219 30.612 128.219 23.959 C 128.219 17.306 113.219 21.108 113.219 14.454 C 113.219 9.702 126.219 9.702 127.219 14.454" fill="transparent" stroke="#444" stroke-width="2px" stroke-linejoin="round" stroke-linecap="round" style=""/>
  </svg>
</svg>
